<svg width="124" height="124" viewBox="0 0 124 124" fill="none" xmlns="http://www.w3.org/2000/svg">
<g filter="url(#filter0_d_346_10)">
<circle cx="58" cy="54" r="49" fill="url(#paint0_linear_346_10)"/>
</g>
<path d="M44.0433 37.9636C42.1421 37.9636 40.5997 39.273 40.5997 40.8869V43.8102H37.1562C36.5248 43.8102 36.0083 44.2487 36.0083 44.7846C36.0083 45.3206 36.5248 45.7591 37.1562 45.7591H40.5997H55.5218C56.1531 45.7591 56.6696 46.1976 56.6696 46.7335C56.6696 47.2694 56.1531 47.7079 55.5218 47.7079H40.5997H39.4519C38.8205 47.7079 38.304 48.1464 38.304 48.6824C38.304 49.2183 38.8205 49.6568 39.4519 49.6568H40.5997H53.2261C53.8574 49.6568 54.3739 50.0953 54.3739 50.6312C54.3739 51.1672 53.8574 51.6057 53.2261 51.6057H40.5997H37.1562C36.5248 51.6057 36.0083 52.0442 36.0083 52.5801C36.0083 53.116 36.5248 53.5545 37.1562 53.5545H40.5997H50.9304C51.5617 53.5545 52.0782 53.993 52.0782 54.529C52.0782 55.0649 51.5617 55.5034 50.9304 55.5034H40.5997V63.2988C40.5997 66.5267 43.6846 69.1454 47.4868 69.1454C51.2891 69.1454 54.3739 66.5267 54.3739 63.2988H63.5568C63.5568 66.5267 66.6416 69.1454 70.4439 69.1454C74.2461 69.1454 77.331 66.5267 77.331 63.2988H79.6267C80.8965 63.2988 81.9224 62.428 81.9224 61.35C81.9224 60.272 80.8965 59.4011 79.6267 59.4011V55.5034V53.5545V52.4157C79.6267 51.3803 79.146 50.3876 78.2851 49.6568L72.7396 44.9491C71.8787 44.2183 70.7093 43.8102 69.4897 43.8102H65.8525V40.8869C65.8525 39.273 64.31 37.9636 62.4089 37.9636H44.0433ZM75.0353 52.4157V53.5545H65.8525V47.7079H69.4897L75.0353 52.4157ZM47.4868 60.3756C48.4001 60.3756 49.276 60.6835 49.9218 61.2318C50.5676 61.78 50.9304 62.5235 50.9304 63.2988C50.9304 64.0742 50.5676 64.8177 49.9218 65.3659C49.276 65.9142 48.4001 66.2221 47.4868 66.2221C46.5735 66.2221 45.6977 65.9142 45.0519 65.3659C44.4061 64.8177 44.0433 64.0742 44.0433 63.2988C44.0433 62.5235 44.4061 61.78 45.0519 61.2318C45.6977 60.6835 46.5735 60.3756 47.4868 60.3756ZM67.0003 63.2988C67.0003 62.5235 67.3631 61.78 68.0089 61.2318C68.6547 60.6835 69.5306 60.3756 70.4439 60.3756C71.3572 60.3756 72.233 60.6835 72.8788 61.2318C73.5246 61.78 73.8874 62.5235 73.8874 63.2988C73.8874 64.0742 73.5246 64.8177 72.8788 65.3659C72.233 65.9142 71.3572 66.2221 70.4439 66.2221C69.5306 66.2221 68.6547 65.9142 68.0089 65.3659C67.3631 64.8177 67.0003 64.0742 67.0003 63.2988Z" fill="white" fill-opacity="0.73"/>
<defs>
<filter id="filter0_d_346_10" x="0.2" y="0.2" width="123.6" height="123.6" filterUnits="userSpaceOnUse" color-interpolation-filters="sRGB">
<feFlood flood-opacity="0" result="BackgroundImageFix"/>
<feColorMatrix in="SourceAlpha" type="matrix" values="0 0 0 0 0 0 0 0 0 0 0 0 0 0 0 0 0 0 127 0" result="hardAlpha"/>
<feOffset dx="4" dy="8"/>
<feGaussianBlur stdDeviation="6.4"/>
<feComposite in2="hardAlpha" operator="out"/>
<feColorMatrix type="matrix" values="0 0 0 0 0.678431 0 0 0 0 0.396078 0 0 0 0 0.396078 0 0 0 0.25 0"/>
<feBlend mode="normal" in2="BackgroundImageFix" result="effect1_dropShadow_346_10"/>
<feBlend mode="normal" in="SourceGraphic" in2="effect1_dropShadow_346_10" result="shape"/>
</filter>
<linearGradient id="paint0_linear_346_10" x1="13.9831" y1="23.8462" x2="106.808" y2="30.7275" gradientUnits="userSpaceOnUse">
<stop stop-color="#7F4141"/>
<stop offset="1" stop-color="#AD6565"/>
</linearGradient>
</defs>
</svg>
